Nederlandse ondertitels ja/nee

BBC TV-serie: Frozen Planet, Human Planet, Madagascar en Ganges
Deze vierdelige BBC-reeks Frozen Planet laat ons kennismaken met de poolgebieden.

Dutch Subs yes/no

BBC TV-serie: Frozen Planet, Human Planet, Madagascar and Ganges
Focuses on life and the environment in both the Arctic and Antarctic.

------------------------ Dutch Friends ------------------------
---------------------------------------------------------------
- Bezoek ook eens mijn vrienden op:  http://www.Film-Test.nl --
----- voor mijn Nederlandse Sync. ondertitels ---- en meer ----
------- http://www.Film-Test.nl ---- voor Films en meer -------
---------------------------------------------------------------

General:

Complete name                    : Frozen Planet\VIDEO_TS\VTS_03_1.VOB
Format                           : MPEG-PS
File size                        : 1 024 MiB
Duration                         : 41mn 20s
Overall bit rate                 : 3 463 Kbps

Video:

Format                           : MPEG Video
Format version                   : Version 2
Format profile                   : Main@Main
Format settings, BVOP            : Yes
Format settings, Matrix          : Default
Format settings, GOP             : M=3, N=12
Duration                         : 41mn 20s
Bit rate mode                    : Variable
Bit rate                         : 2 946 Kbps
Nominal bit rate                 : 8 800 Kbps
Width                            : 720 pixels
Height                           : 576 pixels
Display aspect ratio             : 16:9
Frame rate                       : 25.000 fps
Standard                         : PAL
Color space                      : YUV
Chroma subsampling               : 4:2:0
Bit depth                        : 8 bits
Scan type                        : Interlaced
Scan order                       : Top Field First
Compression mode                 : Lossy
Bits/(Pixel*Frame)               : 0.284
Stream size                      : 871 MiB (85%)

Audio:

Format                           : AC-3
Format/Info                      : Audio Coding 3
Mode extension                   : CM (complete main)
Muxing mode                      : DVD-Video
Duration                         : 41mn 20s
Bit rate mode                    : Constant
Bit rate                         : 448 Kbps
Channel(s)                       : 6 channels
Channel positions                : Front: L C R, Side: L R, LFE
Sampling rate                    : 48.0 KHz
Bit depth                        : 16 bits
Compression mode                 : Lossy
Stream size                      : 132 MiB (13%)

Text:

Format                           : RLE
Format/Info                      : Run-length encoding
Muxing mode                      : DVD-Video
Delay relative to video          : 5s 80ms

Menu
